<svg xmlns="http://www.w3.org/2000/svg" xmlns:xlink="http://www.w3.org/1999/xlink" width="24" height="24" viewBox="0 0 24 24">
  <defs>
    <clipPath id="clip-path">
      <rect width="24" height="24" fill="none"/>
    </clipPath>
  </defs>
  <g id="inbox" clip-path="url(#clip-path)">
    <g id="Inbox-2" data-name="Inbox" opacity="0.7">
      <rect id="rectangle" width="24" height="24" fill="none"/>
      <path id="icon_editor_attach_money_24px" data-name="icon/editor/attach_money_24px" d="M5.48,7.9c-2.27-.59-3-1.2-3-2.15,0-1.09,1.01-1.85,2.7-1.85,1.78,0,2.44.85,2.5,2.1H9.89A3.986,3.986,0,0,0,6.68,2.19V0h-3V2.16C1.74,2.58.18,3.84.18,5.77c0,2.31,1.91,3.46,4.7,4.13,2.5.6,3,1.48,3,2.41,0,.69-.49,1.79-2.7,1.79-2.06,0-2.87-.92-2.98-2.1H0c.12,2.19,1.76,3.42,3.68,3.83V18h3V15.85c1.95-.37,3.5-1.5,3.5-3.55C10.18,9.46,7.75,8.49,5.48,7.9Z" transform="translate(7 3)"/>
    </g>
  </g>
</svg>
