<svg xmlns="http://www.w3.org/2000/svg" xmlns:xlink="http://www.w3.org/1999/xlink" width="24" height="24" viewBox="0 0 24 24">
  <defs>
    <clipPath id="clip-path">
      <rect width="24" height="24" fill="none"/>
    </clipPath>
    <clipPath id="clip-path-2">
      <rect id="Rectangle_5335" data-name="Rectangle 5335" width="24" height="24" transform="translate(-171 -15661)" fill="none"/>
    </clipPath>
    <clipPath id="clip-path-3">
      <path id="icon_editor_monetization_on_24px" data-name="icon/editor/monetization_on_24px" d="M3.38,6.921A3.425,3.425,0,0,1,0,3.46,3.425,3.425,0,0,1,3.38,0,3.425,3.425,0,0,1,6.76,3.46,3.425,3.425,0,0,1,3.38,6.921ZM1.849,4.384a1.162,1.162,0,0,0,.35.793,1.536,1.536,0,0,0,.755.383v.668h.9V5.568A1.128,1.128,0,0,0,4.911,4.474c0-.864-.714-1.169-1.413-1.353-.65-.171-.9-.357-.9-.661,0-.345.318-.567.811-.567s.731.212.75.647H4.82a1.216,1.216,0,0,0-.963-1.173V.692h-.9V1.36A1.194,1.194,0,0,0,1.9,2.471c0,.628.449,1.031,1.413,1.27.8.194.9.483.9.741s-.213.55-.811.55c-.69,0-.868-.352-.9-.647Z" fill="none"/>
    </clipPath>
  </defs>
  <g id="inbox" clip-path="url(#clip-path)">
    <g id="Mask_Group_1508" data-name="Mask Group 1508" transform="translate(171 15661)" clip-path="url(#clip-path-2)">
      <g id="Group_19293" data-name="Group 19293" transform="translate(-8.998 -35.917)">
        <g id="dollar-bills" transform="translate(-161.002 -15625.159)">
          <g id="Group_19292" data-name="Group 19292" transform="translate(0 2.075)">
            <path id="Path_15144" data-name="Path 15144" d="M18.615,28.593a4.646,4.646,0,0,0-.836,1.458H4.224a4.731,4.731,0,0,0-.885-1.458H2.026a3.072,3.072,0,0,1-1.594-.452H0v1.4a2.345,2.345,0,0,0,.729,1.568,2.234,2.234,0,0,0,1.3.452H19.991a2.03,2.03,0,0,0,2.027-2.02V27.814a3.02,3.02,0,0,1-2.027.779H18.615Z" transform="translate(0 -15.498)" fill="#4c4c4c"/>
            <path id="Path_15145" data-name="Path 15145" d="M19.991,2.075H2.026A2.01,2.01,0,0,0,0,4.071v8.068a2.362,2.362,0,0,0,.729,1.573,2.234,2.234,0,0,0,1.3.452H19.991a2.034,2.034,0,0,0,2.027-2.025V4.071A2.01,2.01,0,0,0,19.991,2.075Zm.519,7.8a4.564,4.564,0,0,0-2.732,2.783H4.224A4.851,4.851,0,0,0,1.508,9.9V6.322A4.591,4.591,0,0,0,4.216,3.558H17.791a4.282,4.282,0,0,0,2.721,2.79V9.873Z" transform="translate(0 -2.075)" fill="#4c4c4c"/>
            <path id="Path_15147" data-name="Path 15147" d="M18.615,36.893a4.638,4.638,0,0,0-.836,1.458H4.224a4.729,4.729,0,0,0-.885-1.458H2.026A3.068,3.068,0,0,1,.433,36.44H0v1.4a2.345,2.345,0,0,0,.729,1.568,2.234,2.234,0,0,0,1.3.453H19.991a2.03,2.03,0,0,0,2.027-2.021V36.114a3.02,3.02,0,0,1-2.027.779H18.615Z" transform="translate(0 -19.826)" fill="#4c4c4c"/>
          </g>
        </g>
        <g id="icon_editor_monetization_on_24px-2" data-name="icon/editor/monetization_on_24px" transform="translate(-153.25 -15620.236)">
          <path id="icon_editor_monetization_on_24px-3" data-name="icon/editor/monetization_on_24px" d="M3.38,6.921A3.425,3.425,0,0,1,0,3.46,3.425,3.425,0,0,1,3.38,0,3.425,3.425,0,0,1,6.76,3.46,3.425,3.425,0,0,1,3.38,6.921ZM1.849,4.384a1.162,1.162,0,0,0,.35.793,1.536,1.536,0,0,0,.755.383v.668h.9V5.568A1.128,1.128,0,0,0,4.911,4.474c0-.864-.714-1.169-1.413-1.353-.65-.171-.9-.357-.9-.661,0-.345.318-.567.811-.567s.731.212.75.647H4.82a1.216,1.216,0,0,0-.963-1.173V.692h-.9V1.36A1.194,1.194,0,0,0,1.9,2.471c0,.628.449,1.031,1.413,1.27.8.194.9.483.9.741s-.213.55-.811.55c-.69,0-.868-.352-.9-.647Z" transform="translate(0 0)" fill="none"/>
          <g transform="translate(0 0)" clip-path="url(#clip-path-3)">
            <g id="_Color" data-name="↳ Color" transform="translate(-0.676 -0.692)">
              <rect id="_Color_background" data-name="↳ Color background" width="8.112" height="8.305" fill="#4c4c4c"/>
              <rect id="Rectangle" width="8.112" height="8.112" fill="#4c4c4c"/>
            </g>
          </g>
        </g>
      </g>
    </g>
  </g>
</svg>
