<svg id="Buy_Online" data-name="Buy Online" xmlns="http://www.w3.org/2000/svg" width="24" height="24" viewBox="0 0 24 24">
  <g id="Inbox" opacity="0.7">
    <rect id="rectangle" width="24" height="24" fill="none"/>
    <path id="icon_editor_monetization_on_24px" data-name="icon/editor/monetization_on_24px" d="M10,20A10,10,0,1,1,20,10,10.011,10.011,0,0,1,10,20ZM5.47,12.67A3.323,3.323,0,0,0,6.5,14.963,4.582,4.582,0,0,0,8.74,16.07V18h2.67V16.09c1.974-.375,3.111-1.526,3.119-3.16,0-2.5-2.113-3.378-4.18-3.91-1.922-.495-2.67-1.03-2.67-1.91,0-1,.942-1.64,2.4-1.64,1.437,0,2.163.612,2.22,1.87H14.26a3.59,3.59,0,0,0-.75-2.1,3.742,3.742,0,0,0-2.1-1.29V2H8.74V3.93C7.236,4.254,5.63,5.266,5.63,7.14c0,1.814,1.328,2.98,4.18,3.67,2.353.559,2.67,1.4,2.67,2.14,0,.769-.631,1.59-2.4,1.59-2.043,0-2.568-1.017-2.65-1.87Z" transform="translate(2 2)" fill="#707070"/>
  </g>
</svg>
