<svg id="Logout" xmlns="http://www.w3.org/2000/svg" xmlns:xlink="http://www.w3.org/1999/xlink" width="24" height="24" viewBox="0 0 24 24">
  <defs>
    <clipPath id="clip-path">
      <rect id="Rectangle_5394" data-name="Rectangle 5394" width="24" height="24" transform="translate(-11438 -8701)" fill="#fff"/>
    </clipPath>
    <clipPath id="clip-path-2">
      <rect width="18" height="21" fill="none"/>
    </clipPath>
    <clipPath id="clip-path-3">
      <path id="icon_maps_person_pin_24px" data-name="icon/maps/person_pin_24px" d="M9,21H9L6,18H2a2,2,0,0,1-2-2V2A2,2,0,0,1,2,0H16a2,2,0,0,1,2,2V16a2,2,0,0,1-2,2H12L9,21ZM9,10a10.694,10.694,0,0,0-3.75.8C4.223,11.231,3,11.98,3,13.1V14H15v-.9c0-1.12-1.224-1.869-2.25-2.3A10.694,10.694,0,0,0,9,10ZM9,3.3A2.7,2.7,0,1,0,11.7,6,2.7,2.7,0,0,0,9,3.3Z" transform="translate(3 2)" fill="none"/>
    </clipPath>
  </defs>
  <g id="Mask_Group_19320" data-name="Mask Group 19320" transform="translate(11438 8701)" opacity="0.7" clip-path="url(#clip-path)">
    <g id="icon_maps_person_pin_24px-2" data-name="icon/maps/person_pin_24px" transform="translate(-11435 -8699)" clip-path="url(#clip-path-2)">
      <path id="icon_maps_person_pin_24px-3" data-name="icon/maps/person_pin_24px" d="M9,21H9L6,18H2a2,2,0,0,1-2-2V2A2,2,0,0,1,2,0H16a2,2,0,0,1,2,2V16a2,2,0,0,1-2,2H12L9,21ZM9,10a10.694,10.694,0,0,0-3.75.8C4.223,11.231,3,11.98,3,13.1V14H15v-.9c0-1.12-1.224-1.869-2.25-2.3A10.694,10.694,0,0,0,9,10ZM9,3.3A2.7,2.7,0,1,0,11.7,6,2.7,2.7,0,0,0,9,3.3Z" transform="translate(0 0)" fill="none"/>
      <g transform="translate(-3 -2)" clip-path="url(#clip-path-3)">
        <g id="_Color" data-name="↳ Color">
          <rect id="_Color_background" data-name="↳ Color background" width="24" height="24" fill="rgba(0,0,0,0)"/>
          <rect id="Rectangle" width="24" height="24" fill="rgba(0,0,0,0.54)"/>
        </g>
      </g>
    </g>
  </g>
</svg>
