<svg xmlns="http://www.w3.org/2000/svg" width="15" height="21.416" viewBox="0 0 15 21.416">
  <g id="blood-drop" transform="translate(-76.679 0)">
    <path id="Path_331" data-name="Path 331" d="M90.6,10.389,84.5.3a.628.628,0,0,0-1.083.015L77.656,10.464a6.615,6.615,0,0,0-.977,3.46,7.5,7.5,0,0,0,15,0A6.364,6.364,0,0,0,90.6,10.389Zm-6.421,9.772a6.248,6.248,0,0,1-6.245-6.237,5.374,5.374,0,0,1,.814-2.84l5.236-9.215,5.541,9.17a5.16,5.16,0,0,1,.9,2.886,6.248,6.248,0,0,1-6.245,6.237Z" transform="translate(0 0)" fill="#541572"/>
  </g>
</svg>
