<svg xmlns="http://www.w3.org/2000/svg" width="27" height="27" viewBox="0 0 27 27">
  <path id="copy" d="M23.836,27H9.492a3.167,3.167,0,0,1-3.164-3.164V9.492A3.167,3.167,0,0,1,9.492,6.328H23.836A3.167,3.167,0,0,1,27,9.492V23.836A3.167,3.167,0,0,1,23.836,27ZM9.492,8.438A1.056,1.056,0,0,0,8.438,9.492V23.836a1.056,1.056,0,0,0,1.055,1.055H23.836a1.056,1.056,0,0,0,1.055-1.055V9.492a1.056,1.056,0,0,0-1.055-1.055ZM4.219,18.563H3.164a1.056,1.056,0,0,1-1.055-1.055V3.164A1.056,1.056,0,0,1,3.164,2.109H17.508a1.056,1.056,0,0,1,1.055,1.055v1h2.109v-1A3.167,3.167,0,0,0,17.508,0H3.164A3.167,3.167,0,0,0,0,3.164V17.508a3.167,3.167,0,0,0,3.164,3.164H4.219Zm0,0" opacity="0.39"/>
</svg>
