<svg xmlns="http://www.w3.org/2000/svg" width="23.6" height="23.994" viewBox="0 0 23.6 23.994">
  <g id="edit" transform="translate(-4.212 -0.003)">
    <path id="Path_294" data-name="Path 294" d="M9.927,0H22.1a5.73,5.73,0,0,1,5.715,5.715V18.282A5.731,5.731,0,0,1,22.1,24H9.927a5.732,5.732,0,0,1-5.715-5.715V5.718A5.731,5.731,0,0,1,9.927,0Z" fill="#f34235" fill-rule="evenodd"/>
    <path id="Path_295" data-name="Path 295" d="M133.648,111.578a.211.211,0,1,1,0,.422h-12.21a.211.211,0,0,1,0-.422Zm-7.2-13q1.961,1.134,3.924,2.265l.187-.324a.24.24,0,0,0,.019-.031,2.273,2.273,0,0,0-.82-3.07.264.264,0,0,0-.033-.019,2.27,2.27,0,0,0-3.073.824.169.169,0,0,0-.015.027Zm-3.888,6.735,3.923,2.266,3.678-6.372q-1.961-1.132-3.923-2.265l-2.84,4.919Zm-.082,5.051,3.726-2.462-3.785-2.185-.268,4.458a.217.217,0,0,0,.035.129A.212.212,0,0,0,122.481,110.367Z" transform="translate(-111.531 -92.554)" fill="#fff"/>
  </g>
</svg>
