<svg xmlns="http://www.w3.org/2000/svg" width="20.353" height="22.302" viewBox="0 0 20.353 22.302">
  <path id="home" d="M19.807,9.7v0L11.5.6a1.76,1.76,0,0,0-2.65,0L.552,9.693.544,9.7a2.2,2.2,0,0,0,0,2.9,1.791,1.791,0,0,0,1.243.6.543.543,0,0,0,.058,0H2.18V19.9a2.308,2.308,0,0,0,2.193,2.4H7.622a.627.627,0,0,0,.6-.653V16.4a1.053,1.053,0,0,1,1-1.1h1.916a1.053,1.053,0,0,1,1,1.1v5.249a.627.627,0,0,0,.6.653H15.98a2.308,2.308,0,0,0,2.193-2.4V13.2h.307a1.784,1.784,0,0,0,1.325-.6,2.2,2.2,0,0,0,0-2.9Zm0,0" transform="translate(0 0.001)" fill="#541572"/>
</svg>
