<svg xmlns="http://www.w3.org/2000/svg" width="18.771" height="18.771" viewBox="0 0 18.771 18.771">
  <g id="_48-Menu" transform="translate(-2 -2)">
    <g id="XMLID_1_" transform="translate(2 2)">
      <path id="Path_336" data-name="Path 336" d="M24.374,8.7V4.011a.672.672,0,0,0-.67-.67H19.011a.672.672,0,0,0-.67.67V8.7a.672.672,0,0,0,.67.67H23.7A.672.672,0,0,0,24.374,8.7ZM23.7,2a2.008,2.008,0,0,1,2.011,2.011V8.7A2.008,2.008,0,0,1,23.7,10.715H19.011A2.008,2.008,0,0,1,17,8.7V4.011A2.008,2.008,0,0,1,19.011,2Z" transform="translate(-6.944 -2)" fill="#541572"/>
      <path id="Path_337" data-name="Path 337" d="M24.374,23.7V19.011a.672.672,0,0,0-.67-.67H19.011a.672.672,0,0,0-.67.67V23.7a.672.672,0,0,0,.67.67H23.7A.672.672,0,0,0,24.374,23.7ZM23.7,17a2.008,2.008,0,0,1,2.011,2.011V23.7A2.008,2.008,0,0,1,23.7,25.715H19.011A2.008,2.008,0,0,1,17,23.7V19.011A2.008,2.008,0,0,1,19.011,17Z" transform="translate(-6.944 -6.944)" fill="#541572"/>
      <path id="Path_338" data-name="Path 338" d="M8.7,9.374a.672.672,0,0,0,.67-.67V4.011a.672.672,0,0,0-.67-.67H4.011a.672.672,0,0,0-.67.67V8.7a.672.672,0,0,0,.67.67ZM8.7,2a2.008,2.008,0,0,1,2.011,2.011V8.7A2.008,2.008,0,0,1,8.7,10.715H4.011A2.008,2.008,0,0,1,2,8.7V4.011A2.008,2.008,0,0,1,4.011,2Z" transform="translate(-2 -2)" fill="#541572"/>
      <path id="Path_339" data-name="Path 339" d="M8.7,24.374a.672.672,0,0,0,.67-.67V19.011a.672.672,0,0,0-.67-.67H4.011a.672.672,0,0,0-.67.67V23.7a.672.672,0,0,0,.67.67ZM8.7,17a2.008,2.008,0,0,1,2.011,2.011V23.7A2.008,2.008,0,0,1,8.7,25.715H4.011A2.008,2.008,0,0,1,2,23.7V19.011A2.008,2.008,0,0,1,4.011,17Z" transform="translate(-2 -6.944)" fill="#541572"/>
    </g>
  </g>
</svg>
