<svg xmlns="http://www.w3.org/2000/svg" width="19.771" height="17.806" viewBox="0 0 19.771 17.806">
  <g id="piggy-bank" transform="translate(-2 -3.995)">
    <path id="Path_334" data-name="Path 334" d="M19.668,9a6.42,6.42,0,0,1,3.392,1.017.482.482,0,0,1,.093.624.439.439,0,0,1-.587.154,5.59,5.59,0,0,0-2.9-.857,5.664,5.664,0,0,0-2.9.857.41.41,0,0,1-.247.08.452.452,0,0,1-.427-.334.479.479,0,0,1,.18-.524A6.42,6.42,0,0,1,19.668,9Z" transform="translate(-7.783 -2.66)" fill="#541572"/>
    <circle id="Ellipse_7" data-name="Ellipse 7" cx="1" cy="1" r="1" transform="translate(6 8.795)" fill="#541572"/>
    <path id="Path_335" data-name="Path 335" d="M2.449,11.025a1.459,1.459,0,0,0,1.375-.989,8.605,8.605,0,0,1,1.321-2.46V7.408L3.86,5.174A.485.485,0,0,1,3.8,4.789.462.462,0,0,1,4.045,4.5c.126-.056,2.975-1.312,4.772.347a9.245,9.245,0,0,1,3.069-.384,9.426,9.426,0,0,1,6.8,3.031,8.809,8.809,0,0,1,.9,1.176,1.38,1.38,0,0,0,1.29-1.4.45.45,0,1,1,.9,0,2.327,2.327,0,0,1-1.685,2.258,7.322,7.322,0,0,1,.786,3.523,8.121,8.121,0,0,1-2.247,5.191v3.083a.459.459,0,0,1-.449.469H15.188a.45.45,0,0,1-.449-.319c-.157-.5-.517-1.087-1.056-1.087H10.537a1.193,1.193,0,0,0-.813.309,3.926,3.926,0,0,0-.705.885.445.445,0,0,1-.373.211h-2.6a.44.44,0,0,1-.319-.136.479.479,0,0,1-.13-.333v-3.12c-.189-.258-.616-.853-.813-1.148a1.448,1.448,0,0,0-.939-.632l-1.469-.253A.464.464,0,0,1,2,15.71V11.494A.459.459,0,0,1,2.449,11.025ZM2.9,15.312l1.092.192a2.334,2.334,0,0,1,1.523,1.017c.256.379.9,1.251.9,1.251a.483.483,0,0,1,.081.281v2.811H8.408a4.111,4.111,0,0,1,.75-.885,2.034,2.034,0,0,1,1.379-.52h3.145a2.075,2.075,0,0,1,1.8,1.406h2.247V18.053a.479.479,0,0,1,.135-.337,7.155,7.155,0,0,0,2.112-4.694,6.828,6.828,0,0,0-1.928-4.872A8.522,8.522,0,0,0,11.885,5.4a6.847,6.847,0,0,0-2.943.417.436.436,0,0,1-.535-.1c-.984-1.115-2.665-.787-3.491-.534L5.981,7.062a.483.483,0,0,1,.063.216v.469a.481.481,0,0,1-.1.3A7.756,7.756,0,0,0,4.669,10.35,2.38,2.38,0,0,1,2.9,11.92Z" transform="translate(0 0)" fill="#541572"/>
  </g>
</svg>
