<svg xmlns="http://www.w3.org/2000/svg" width="57" height="57" viewBox="0 0 57 57">
  <g id="Group_931" data-name="Group 931" transform="translate(-161 -583)">
    <rect id="Rectangle_161" data-name="Rectangle 161" width="57" height="57" rx="12" transform="translate(161 583)" fill="#541572"/>
    <g id="Layer_2" data-name="Layer 2" transform="translate(177 599)">
      <path id="Path_326" data-name="Path 326" d="M3,11a1,1,0,0,0,1-1V5A1,1,0,0,1,5,4h5.5a1,1,0,0,0,0-2H5A3,3,0,0,0,2,5v5A1,1,0,0,0,3,11Z" fill="#fff"/>
      <path id="Path_327" data-name="Path 327" d="M27,2H21.5a1,1,0,0,0,0,2H27a1,1,0,0,1,1,1v5a1,1,0,0,0,2,0V5A3,3,0,0,0,27,2Z" transform="translate(-7)" fill="#fff"/>
      <path id="Path_328" data-name="Path 328" d="M29,21a1,1,0,0,0-1,1v5a1,1,0,0,1-1,1H21.5a1,1,0,0,0,0,2H27a3,3,0,0,0,3-3V22A1,1,0,0,0,29,21Z" transform="translate(-7 -7)" fill="#fff"/>
      <path id="Path_329" data-name="Path 329" d="M10.5,28H5a1,1,0,0,1-1-1V22a1,1,0,0,0-2,0v5a3,3,0,0,0,3,3h5.5a1,1,0,0,0,0-2Z" transform="translate(0 -7)" fill="#fff"/>
      <path id="Path_330" data-name="Path 330" d="M22.25,15H2.75c-.414,0-.75.448-.75,1s.336,1,.75,1h19.5c.414,0,.75-.448.75-1S22.664,15,22.25,15Z" transform="translate(0 -3.5)" fill="#fff"/>
    </g>
  </g>
</svg>
